<svg xmlns="http://www.w3.org/2000/svg" viewBox="0 0 512 512" xml:space="preserve">
  <path style="fill:#521f0e" d="M509.571 220.737C492.388 96.041 385.419 0 256 0 114.615 0 0 114.616 0 256c0 113.387 73.722 209.54 175.843 243.182l333.728-278.445z"/>
  <path style="fill:#220d06" d="M512 256c0-11.966-.84-23.735-2.429-35.263L400.696 111.861 74.199 196.297l1.036 85.198 84.321 84.321-103.904 13.175 120.191 120.191C201.06 507.49 228.001 512 256 512c141.384 0 256-114.616 256-256z"/>
  <path style="fill:#ffe376" d="m422.957 378.991-22.261 38.957H256l-21.704-50.087z"/>
  <path style="fill:#fff3ad" d="M111.304 417.948H256v-50.087l-166.957 11.13z"/>
  <path style="fill:#fff" d="M222.609 301.078H122.435c-36.824 0-66.783-29.959-66.783-66.783s29.959-66.783 66.783-66.783h100.174v22.261H122.435c-24.549 0-44.522 19.972-44.522 44.522s19.972 44.522 44.522 44.522h100.174v22.261z"/>
  <path style="fill:#fff3ad" d="M400.696 111.861H256l-33.391 267.13 122.435-22.261c-.001-89.962 55.652-154.906 55.652-244.869z"/>
  <path style="fill:#fff" d="M111.304 111.861H256v267.13l-89.043-22.261c0-89.962-55.653-154.906-55.653-244.869z"/>
  <path style="fill:#ffd23e" d="M456.348 356.73v22.261H256l-10.991-11.13L256 356.73z"/>
  <path style="fill:#ffe376" d="M55.652 356.73H256v22.261H55.652z"/>
  <path style="fill:#692811" d="m200.904 111.861 176.295 22.261c-3.539 32.145-14.158 61.696-25.277 92.65-12.099 33.67-24.543 68.307-28.127 107.698H256l-55.096-222.609z"/>
  <path style="fill:#813115" d="M256 111.861V334.47h-67.795c-3.584-39.391-16.028-74.029-28.127-107.698-11.119-30.954-21.738-60.505-25.277-92.65L256 111.861z"/>
  <path style="fill:#b78456" d="M377.199 111.861v22.261H256L233.739 89.6z"/>
  <path style="fill:#c9a06c" d="M134.801 111.861 256 89.6v44.522H134.801z"/>
  <path style="fill:#c9a06c" d="M377.199 111.861H256L233.739 89.6 256 67.339h76.678c24.487 0 44.521 20.035 44.521 44.522z"/>
  <path style="fill:#dbbc82" d="M256 67.339v44.522H134.801c0-24.487 20.035-44.522 44.522-44.522H256z"/>
</svg>